<?xml version="1.0" encoding="UTF-8"?><svg id="_이어_2" xmlns="http://www.w3.org/2000/svg" viewBox="0 0 360.34 61.92"><g id="_이어_2-2"><g><path d="M30.9,32.02c0,.83-1.39,2.06-2.06,2.73-3.95,4.06-9.58,9.02-15.14,9.02h-.22c-5.74-.17-10.13-3.67-12.19-9.02-1.28-3.17-1.28-7.63-1.28-10.58,0-4.12,3.06-10.41,6.74-14.31,4.4-4.68,9.91-7.57,14.2-7.57,1.11,0,6.68,.56,6.68,2.28-.17,.95-.84,1.23-1.84,1.23h-.33c-1.67,0-3.79-.61-5.12-.61-3.28,0-7.91,2.56-11.41,6.29-3.23,3.4-6.01,9.35-6.01,13.36,0,2.9,.11,5.79,1.17,8.8,1.61,4.57,5.62,7.57,10.69,7.57,3.01,0,9.35-4.96,12.03-7.57,1-.83,2.56-2.28,3.29-2.28,.28,0,.83,.28,.83,.67Z"/><path d="M56.85,7.35c-1.34,8.46-2.39,19.15-2.39,25.39,0,2.73,.06,5.57,.06,9.08,0,.89-.06,1.73-1.73,1.73s-1.39-2.95-1.39-5.57c0-4.79,.39-9.58,.56-14.48,0,0-9.41,1.06-13.53,1.73-.33,2.06-.56,3.95-.78,6.29-.28,2.9-.56,6.35-.95,8.74-.28,1.61-.33,2.73-1.39,2.73s-1.61-.84-1.61-2.12c0-1.89,1.11-8.07,1.56-15.26-1.39,.17-2.78,.39-4.96,.39-1.95,0-2.67-.28-2.67-1.28,0-2.06,6.24-1.67,8.13-2.17,.17-.67,.5-2.28,.67-3.95,.06-1.73,1.67-11.47,1.84-13.98,.11-2.28,.67-4.45,2.51-4.45,.95,.11,1.17,.78,1.17,1.61,0,.67-.11,1.45-.17,2-1.78,7.18-2.62,16.31-2.9,18.26,3.9,0,10.36-1.23,13.31-1.45,1.61-9.02,1.17-19.71,4.79-19.71,.67,0,1.11,.56,1.11,1.39-.06,1.17-.67,2.17-1.23,5.07Z"/><path d="M75.89,43.26c-11.53,0-15.53-13.75-15.53-18.76,0-9.69,7.29-21.77,19.15-22.27,8.41,0,14.31,7.63,14.31,18.54-.06,7.96-6.68,22.49-17.93,22.49Zm3.84-38.47c-4.23,0-8.35,2.06-11.53,5.79-3.06,3.62-5.12,8.91-5.12,13.53,0,4.29,3.84,16.54,12.86,16.54,7.35,0,15.09-9.58,15.09-20.49,0-9.63-6.46-15.37-11.3-15.37Z"/><path d="M130.62,19.15c-.83,6.12-1.5,13.81-1.5,19.77,.28,.84,.72,1.61,1.06,2.23,.28,.5,.56,.89,.56,1.11-.06,.84-.89,1.73-1.78,1.73-1.45,0-3.4-.56-3.45-3.73-3.34-4.4-6.85-9.02-10.25-13.53-3.17-4.23-6.35-8.35-9.13-12.03-.61,3.29-1.23,7.29-1.73,11.3-.72,5.46-1.5,10.86-1.5,14.03v1.17c0,.95-.28,1.78-1.34,1.78-2,0-1.84-1.28-1.84-3.01,0-1.61,1-9.19,1.95-16.09,.72-5.35,1.45-10.3,1.67-11.92-.61-1.06-.95-1.73-.95-2.34,0-1.06,1.17-.95,1.61-1.61,.45-1.89,.67-3.06,1.56-3.06,1.56,0,1.89,.84,1.89,1.73,0,1.34-.28,2.12-.67,3.9,.11-.06,4.34,5.85,9.74,13.25,2.9,4.01,6.35,8.91,9.69,13.03,.17-1.34,.67-12.86,1.5-17.37,1.95-11.97,1.45-16.48,4.06-16.48,.95,0,1.17,.56,1.17,1.73,0,.45-.11,1-.22,1.61-.84,4.01-1.45,7.85-2.12,12.81Z"/><path d="M187.18,4.9l-.95-.17c-1.22-.28-2.73-.61-7.35-.61-2.56,0-6.4,.72-9.58,1.34l-2.84,.56c-.89,3.12-2.17,11.64-2.56,15.2,3.17,0,7.85-.89,11.53-1.56,2.51-.45,5.07-.95,6.24-.95,1.45,0,2.78,.56,2.78,1.39s-.95,1.28-1.89,1.28c-.17,0-.56-.06-.72-.06-.22-.06-.67-.06-.89-.06-1.89,0-3.45,.39-5.01,.78-1.17,.28-2.56,.61-4.23,.83-1.39,.17-2.9,.33-4.23,.45-1.89,.17-3.56,.33-4.34,.56-.95,4.51-1.84,11.02-2.28,17.21,0,.39,1.11,1.78,3.12,1.78,2.78,0,7.13-1,11.58-2,1.23-.28,2.56-.67,3.84-1,2.62-.72,5.12-1.34,6.35-1.34,1.11,0,1.34,.72,1.34,1.17-.06,.39-4.9,2.06-10.19,3.45-4.68,1.22-10.08,2.28-13.53,2.28-4.73,0-5.68-3.12-5.73-3.84l.33-2.95c.61-5.18,1.23-10.08,2.06-14.98-2.39,0-5.18-.61-5.18-2.34,0-.61,.72-.84,1.5-.84,.45,0,.84,.11,1.39,.22,.61,.11,1.45,.28,2.78,.39,.39-.83,.83-3.9,1.17-6.18,.11-.89,.22-1.67,.33-2.17,.22-1.39,1.23-6.29,1.23-6.29-1,.22-2.51,.28-3.95,.28-1.61,0-3.12-.11-3.12-1.5,0-1.17,1.67-1.28,5.07-1.56,1.84-.11,4.23-.33,7.13-.72,2.62-.56,8.3-1.34,13.42-1.34,4.45,0,8.07,.33,8.07,1.61,0,.11,0,.28-.05,.39-.33,1.11-1.78,1.28-2.62,1.28Z"/><path d="M213.8,14.14c-.61,4.57-1.22,9.24-1.22,12.47,0,1.56-.06,3.68,.11,13.25,0,.89,.17,2.62-1.62,2.62-1.22,0-1.45-1.34-1.45-2.39,0-.39,.06-.78,.06-1.11-.06-2.06-.06-4.01-.06-5.9,0-4.73,.33-9.74,.72-14.59-1.73,4.18-4.4,11.64-10.36,19.15-1.39,1.56-3.79,4.62-6.4,4.62-3.12,0-2.84-6.07-2.84-15.31,0-.84,.67-23.78,4.18-23.72,1,0,1.39,.5,1.39,1.11s-.56,2.39-.61,3.01c-1.73,9.58-2.12,15.81-2.12,26.22,0,3.17,.28,5.51,1.11,5.51,1.39,0,4.18-3.68,6.07-6.79,2.12-3.51,3.79-7.57,5.57-11.25,5.29-10.91,3.01-16.98,6.9-16.98,1.34,0,1.56,1.73,1.56,2.84-.28,2.23-.67,4.73-1,7.24Z"/><path d="M252.33,19.15c-.84,6.12-1.5,13.81-1.5,19.77,.28,.84,.72,1.61,1.06,2.23,.28,.5,.56,.89,.56,1.11-.06,.84-.89,1.73-1.78,1.73-1.45,0-3.4-.56-3.45-3.73-3.34-4.4-6.85-9.02-10.25-13.53-3.17-4.23-6.35-8.35-9.13-12.03-.61,3.29-1.22,7.29-1.73,11.3-.72,5.46-1.5,10.86-1.5,14.03v1.17c0,.95-.28,1.78-1.34,1.78-2.01,0-1.84-1.28-1.84-3.01,0-1.61,1-9.19,1.95-16.09,.72-5.35,1.45-10.3,1.67-11.92-.61-1.06-.95-1.73-.95-2.34,0-1.06,1.17-.95,1.62-1.61,.45-1.89,.67-3.06,1.56-3.06,1.56,0,1.89,.84,1.89,1.73,0,1.34-.28,2.12-.67,3.9,.11-.06,4.34,5.85,9.74,13.25,2.9,4.01,6.35,8.91,9.69,13.03,.17-1.34,.67-12.86,1.5-17.37,1.95-11.97,1.45-16.48,4.06-16.48,.95,0,1.17,.56,1.17,1.73,0,.45-.11,1-.22,1.61-.84,4.01-1.45,7.85-2.12,12.81Z"/><path d="M301.15,7.35c-1.34,8.46-2.39,19.15-2.39,25.39,0,2.73,.06,5.57,.06,9.08,0,.89-.06,1.73-1.73,1.73s-1.39-2.95-1.39-5.57c0-4.79,.39-9.58,.56-14.48,0,0-9.41,1.06-13.53,1.73-.33,2.06-.56,3.95-.78,6.29-.28,2.9-.56,6.35-.95,8.74-.28,1.61-.33,2.73-1.39,2.73s-1.62-.84-1.62-2.12c0-1.89,1.11-8.07,1.56-15.26-1.39,.17-2.78,.39-4.96,.39-1.95,0-2.67-.28-2.67-1.28,0-2.06,6.24-1.67,8.13-2.17,.17-.67,.5-2.28,.67-3.95,.05-1.73,1.67-11.47,1.84-13.98,.11-2.28,.67-4.45,2.51-4.45,.95,.11,1.17,.78,1.17,1.61,0,.67-.11,1.45-.17,2-1.78,7.18-2.62,16.31-2.89,18.26,3.9,0,10.36-1.23,13.31-1.45,1.62-9.02,1.17-19.71,4.79-19.71,.67,0,1.11,.56,1.11,1.39-.05,1.17-.67,2.17-1.22,5.07Z"/><path d="M330.27,14.14c-.61,4.57-1.23,9.24-1.23,12.47,0,1.56-.05,3.68,.11,13.25,0,.89,.17,2.62-1.61,2.62-1.22,0-1.45-1.34-1.45-2.39,0-.39,.06-.78,.06-1.11-.06-2.06-.06-4.01-.06-5.9,0-4.73,.34-9.74,.72-14.59-1.73,4.18-4.4,11.64-10.36,19.15-1.39,1.56-3.79,4.62-6.4,4.62-3.12,0-2.84-6.07-2.84-15.31,0-.84,.67-23.78,4.18-23.72,1,0,1.39,.5,1.39,1.11s-.56,2.39-.61,3.01c-1.73,9.58-2.12,15.81-2.12,26.22,0,3.17,.28,5.51,1.11,5.51,1.39,0,4.18-3.68,6.07-6.79,2.12-3.51,3.79-7.57,5.57-11.25,5.29-10.91,3.01-16.98,6.9-16.98,1.34,0,1.56,1.73,1.56,2.84-.28,2.23-.67,4.73-1,7.24Z"/><path d="M354.77,33.96c-1.28,7.63-2.45,11.02-3.06,18.15-.72,7.63,.22,9.8-2.06,9.8-1.17,0-1.45-.39-1.45-1.45-.05-2.78,.17-3.56,.67-7.91,1.56-13.64,6.01-35.3,7.63-42.98-2.67,3.17-10.36,15.7-15.2,15.7-3.73,0-4.51-4.06-4.51-7.63,0-3.9,1.22-13.75,2.39-16.15,.56-1.17,.78-1.39,1.78-1.5,.67,0,1,.67,1,1.22v.22c-.17,1.73-.56,3.9-.95,6.18-.61,3.4-1.22,7.13-1.22,10.08,0,2.06,.67,4.68,1.89,4.68,2.39,0,5.62-4.84,8.52-8.57,3.01-3.9,6.9-10.58,8.69-10.58,1.22,0,1.45,1.17,1.45,2.51,0,.22-1.5,7.07-1.56,7.24-.84,4.4-2.23,10.13-4.01,20.99Z"/></g></g></svg>