<?xml version="1.0" encoding="UTF-8"?><svg id="_이어_2" xmlns="http://www.w3.org/2000/svg" viewBox="0 0 136.12 49"><g id="_이어_2-2"><g><path d="M1.54,10.67H27.44v5.55h-9.07v.17c0,5.33,5.61,9.68,10.39,10.72l-3.35,5.55c-4.12-.88-9.07-4.95-10.78-8.58-1.49,3.68-6.43,7.81-11.27,9.13L0,27.72c5.88-1.65,10.72-5.99,10.72-11.33v-.17H1.54v-5.55ZM7.26,2.53h14.57V7.75H7.26V2.53Zm.22,45.26v-14.52h7.42v8.85h26.67v5.66H7.48Zm33.11-11.82h-7.37v-12.32h-6.65v-5.83h6.65V0h7.37V35.96Z"/><path d="M47.46,30.08v-5.77h44.27v5.77H47.46Zm22.27-8.25c-10.94,0-17.21-4.51-17.21-10.06S58.79,1.81,69.63,1.81s17.27,4.51,17.27,9.95-6.32,10.06-17.16,10.06Zm-16.72,25.96v-14.68h7.31v9.02h26.34v5.66H53.02ZM69.63,7.26c-5.88,0-9.68,1.98-9.68,4.62s3.79,4.45,9.68,4.45,9.73-1.92,9.73-4.45-3.63-4.62-9.73-4.62Z"/><path d="M107.41,47.4v-10.78c-3.52,.17-7.26,.22-11.22,.22-.33-1.98-.66-4.12-.93-6.1,13.31,0,23.15-.39,31.4-1.38,.17,1.81,.22,3.79,.38,5.61-3.96,.5-8.03,.94-12.32,1.26v11.16h-7.31Zm-10.72-34.04v-5.33h29.42v5.33h-29.42Zm15.01,15.67c-7.2,0-11.93-2.97-11.93-7.31s4.73-7.59,11.93-7.59,12.04,3.13,12.04,7.64-4.95,7.26-12.04,7.26ZM105.16,1.43h13.64V6.54h-13.64V1.43Zm6.54,17.82c-3.3,0-4.73,1.1-4.73,2.53,0,1.21,1.32,2.42,4.73,2.42s4.62-1.21,4.62-2.42c0-1.43-1.21-2.53-4.62-2.53Zm24.42,29.75h-7.31V0h7.31V49Z"/></g></g></svg>