<?xml version="1.0" encoding="UTF-8"?><svg id="_이어_2" xmlns="http://www.w3.org/2000/svg" viewBox="0 0 360.34 37.49"><g id="_이어_2-2"><g><g><path d="M8.33,33.32H4.17v-4.17H0V8.33H4.17V4.17h4.17V0H24.99V4.17h4.17V12.5h-4.17v-4.17h-4.17V4.17H12.5v4.17h-4.17V29.16h4.17v4.17h8.33v-4.17h4.17v-4.17h4.17v8.33h-4.17v4.17H8.33v-4.17Z"/><path d="M33.33,0h8.33V16.66h12.5V0h8.33V37.49h-8.33V20.83h-12.5v16.66h-8.33V0Z"/><path d="M70.82,33.32h-4.17V4.17h4.17V0h20.83V4.17h4.17v29.16h-4.17v4.17h-20.83v-4.17Zm4.17,0h12.5V4.17h-12.5v29.16Z"/><path d="M99.98,0h8.33V4.17h4.17v4.17h4.17v4.17h4.17V0h8.33V37.49h-8.33v-12.5h-4.17v-4.17h-4.17v-4.17h-4.17v20.83h-8.33V0Z"/></g><g><path d="M151.01,33.32V4.17h-4.17V0h29.16V12.5h-4.17v-4.17h-4.17V4.17h-8.33v12.5h4.17v-4.17h4.17v12.5h-4.17v-4.17h-4.17v12.5h8.33v-4.17h4.17v-4.17h4.17v12.5h-29.16v-4.17h4.17Z"/><path d="M184.34,33.32h-4.17V0h8.33V33.32h12.5V0h8.33V33.32h-4.17v4.17h-20.83v-4.17Z"/><path d="M213.5,0h8.33V4.17h4.17v4.17h4.17v4.17h4.17V0h8.33V37.49h-8.33v-12.5h-4.17v-4.17h-4.17v-4.17h-4.17v20.83h-8.33V0Z"/></g><g><path d="M260.36,0h8.33V16.66h12.5V0h8.33V37.49h-8.33V20.83h-12.5v16.66h-8.33V0Z"/><path d="M297.85,33.32h-4.17V0h8.33V33.32h12.5V0h8.33V33.32h-4.17v4.17h-20.83v-4.17Z"/><path d="M352.01,37.49h-16.66v-4.17h4.17V16.66h-4.17v-4.17h-4.17v-4.17h-4.17V0h8.33V8.33h4.17v4.17h8.33v-4.17h4.17V0h8.33V8.33h-4.17v4.17h-4.17v4.17h-4.17v16.66h4.17v4.17Z"/></g></g></g></svg>