<?xml version="1.0" encoding="UTF-8"?><svg id="_이어_2" xmlns="http://www.w3.org/2000/svg" viewBox="0 0 360.34 43.88"><g id="_이어_2-2"><g><path d="M17.46,8.79c-.47-.87-1.25-1.31-2.32-1.31-.83,0-1.49,.22-1.99,.65-.5,.44-.87,1.21-1.13,2.32-.26,1.11-.43,2.6-.5,4.48-.08,1.88-.12,4.24-.12,7.1s.04,5.22,.12,7.1c.08,1.88,.25,3.37,.5,4.48,.26,1.11,.63,1.88,1.13,2.32,.49,.44,1.16,.65,1.99,.65,.67,0,1.23-.17,1.66-.5,.44-.34,.77-.9,1.01-1.69,.24-.79,.41-1.85,.51-3.18,.1-1.33,.15-3,.15-5.02h10.69v3.15c0,2.97-.4,5.4-1.19,7.3-.79,1.9-1.84,3.39-3.15,4.48-1.31,1.09-2.8,1.82-4.48,2.2-1.68,.38-3.41,.56-5.2,.56-3.09,0-5.62-.38-7.6-1.13-1.98-.75-3.52-2.01-4.63-3.77-1.11-1.76-1.87-4.04-2.29-6.83s-.62-6.16-.62-10.12,.25-7.46,.74-10.27c.49-2.81,1.34-5.09,2.52-6.83,1.19-1.74,2.75-3,4.69-3.77,1.94-.77,4.33-1.16,7.18-1.16,2.49,0,4.61,.32,6.35,.95,1.74,.63,3.16,1.53,4.25,2.7,1.09,1.17,1.88,2.57,2.37,4.22,.49,1.64,.74,3.49,.74,5.55v2.67h-10.69v-2.37c0-2.41-.24-4.06-.71-4.93Z"/><path d="M44.17,.83v15.56h6.77V.83h11.04V43.22h-11.04V25.77h-6.77v17.46h-11.04V.83h11.04Z"/><path d="M66.73,11.9c.51-2.79,1.37-5.07,2.55-6.83,1.19-1.76,2.75-3.05,4.69-3.86,1.94-.81,4.31-1.22,7.12-1.22s5.19,.41,7.12,1.22c1.94,.81,3.5,2.1,4.69,3.86,1.19,1.76,2.04,4.04,2.55,6.83,.51,2.79,.77,6.17,.77,10.12s-.26,7.33-.77,10.12c-.51,2.79-1.37,5.07-2.55,6.83-1.19,1.76-2.75,3.02-4.69,3.77-1.94,.75-4.31,1.13-7.12,1.13s-5.19-.38-7.12-1.13c-1.94-.75-3.5-2.01-4.69-3.77-1.19-1.76-2.04-4.04-2.55-6.83-.51-2.79-.77-6.16-.77-10.12s.26-7.33,.77-10.12Zm10.75,17.22c.08,1.88,.25,3.37,.5,4.48,.26,1.11,.63,1.88,1.13,2.32,.49,.44,1.16,.65,1.99,.65s1.49-.22,1.99-.65c.49-.44,.87-1.21,1.13-2.32,.26-1.11,.42-2.6,.5-4.48,.08-1.88,.12-4.25,.12-7.1s-.04-5.21-.12-7.1c-.08-1.88-.25-3.37-.5-4.48-.26-1.11-.63-1.88-1.13-2.32-.5-.44-1.16-.65-1.99-.65s-1.49,.22-1.99,.65c-.5,.44-.87,1.21-1.13,2.32-.26,1.11-.43,2.6-.5,4.48-.08,1.88-.12,4.24-.12,7.1s.04,5.22,.12,7.1Z"/><path d="M112.57,.83l7.12,26.12h.12V.83h10.33V43.22h-12.11l-7.36-26.18h-.12v26.18h-10.33V.83h12.35Z"/><path d="M175.92,.83V9.86h-14.07v7.24h13.18v8.67h-13.18v8.43h14.61v9.02h-25.65V.83h25.12Z"/><path d="M191.06,31.41c0,2.06,.3,3.43,.89,4.13,.59,.69,1.4,1.04,2.43,1.04s1.84-.35,2.43-1.04c.59-.69,.89-2.07,.89-4.13V.83h11.04V28.62c0,2.97-.32,5.44-.95,7.42-.63,1.98-1.55,3.56-2.76,4.75-1.21,1.19-2.7,2-4.48,2.43s-3.84,.65-6.17,.65-4.34-.22-6.14-.65c-1.8-.44-3.31-1.25-4.51-2.43-1.21-1.19-2.13-2.77-2.76-4.75-.63-1.98-.95-4.45-.95-7.42V.83h11.04V31.41Z"/><path d="M225.86,.83l7.13,26.12h.12V.83h10.33V43.22h-12.11l-7.36-26.18h-.12v26.18h-10.33V.83h12.35Z"/><path d="M275.14,.83v15.56h6.77V.83h11.04V43.22h-11.04V25.77h-6.77v17.46h-11.04V.83h11.04Z"/><path d="M308.74,31.41c0,2.06,.3,3.43,.89,4.13,.59,.69,1.4,1.04,2.43,1.04s1.84-.35,2.43-1.04c.59-.69,.89-2.07,.89-4.13V.83h11.04V28.62c0,2.97-.32,5.44-.95,7.42-.63,1.98-1.55,3.56-2.76,4.75-1.21,1.19-2.7,2-4.48,2.43s-3.84,.65-6.17,.65-4.34-.22-6.15-.65c-1.8-.44-3.31-1.25-4.51-2.43-1.21-1.19-2.13-2.77-2.76-4.75-.63-1.98-.95-4.45-.95-7.42V.83h11.04V31.41Z"/><path d="M327.86,.83h11.93l4.16,14.78h.12l4.16-14.78h12.11l-10.81,25.71v16.68h-11.04V26.54L327.86,.83Z"/></g></g></svg>