<?xml version="1.0" encoding="UTF-8"?><svg id="_이어_2" xmlns="http://www.w3.org/2000/svg" viewBox="0 0 114.56 22.62"><g id="_이어_2-2"><g><path d="M21.2,.2V22.37h-2.02V5.13l-7.46,17.26h-2.23L2.04,5.13V22.37H0V.2H2.13L10.6,19.83,19.08,.2h2.12Z"/><path d="M39.28,.2V22.39h-2.02v-5.55h-8.81l-3.51,5.55h-2.41L36.56,.2h2.72Zm-9.55,14.6h7.53V2.92l-7.53,11.88Z"/><path d="M43.27,19.66c.4,0,.75,.14,1.04,.43,.29,.29,.43,.63,.43,1.04s-.14,.76-.43,1.05c-.29,.29-.63,.43-1.04,.43s-.76-.14-1.05-.43c-.29-.29-.43-.64-.43-1.05s.14-.75,.43-1.04c.29-.29,.64-.43,1.05-.43Z"/><path d="M49.52,.2V20.35h10.31v2.04h-12.35V.2h2.04Z"/><path d="M73.01,.2V2.24h-9.29V10.24h7.34v2.04h-7.34v8.07h9.29v2.04h-11.33V.2h11.33Z"/><path d="M76.06,19.66c.4,0,.75,.14,1.04,.43,.29,.29,.43,.63,.43,1.04s-.14,.76-.43,1.05c-.29,.29-.63,.43-1.04,.43s-.76-.14-1.05-.43c-.29-.29-.43-.64-.43-1.05s.14-.75,.43-1.04c.29-.29,.64-.43,1.05-.43Z"/><path d="M94.38,.2l-8.87,11.05,9.16,11.14h-2.63l-7.85-9.52-1.87,2.33v7.17h-2.04V.22h2.04V11.96L91.77,.2h2.61Z"/><path d="M95.26,19.3c-2.21-2.2-3.32-4.87-3.32-7.99s1.11-5.79,3.32-8c2.2-2.2,4.87-3.31,7.99-3.31s5.79,1.1,8,3.31c2.2,2.21,3.31,4.88,3.31,8s-1.1,5.78-3.31,7.99c-2.21,2.21-4.88,3.32-8,3.32s-5.78-1.11-7.99-3.32Zm1.44-14.54c-1.81,1.81-2.72,4-2.72,6.55s.91,4.74,2.72,6.55c1.81,1.81,4,2.72,6.55,2.72s4.74-.91,6.55-2.72c1.81-1.81,2.72-4,2.72-6.55s-.91-4.74-2.72-6.55c-1.81-1.81-4-2.72-6.55-2.72s-4.74,.91-6.55,2.72Z"/></g></g></svg>