<?xml version="1.0" encoding="UTF-8"?><svg id="_이어_2" xmlns="http://www.w3.org/2000/svg" viewBox="0 0 41.01 22.62"><g id="_이어_2-2"><g><path d="M11.33,.22V2.26H2.04V10.26h7.34v2.04H2.04v8.07H11.33v2.04H0V.22H11.33Z"/><path d="M25.71,.22V2.26h-5.81V22.41h-2.04V2.26h-5.83V.22h13.68Z"/><path d="M35.97,20.58c1.82,0,3.5-.5,5.04-1.5v2.35c-1.59,.79-3.27,1.19-5.04,1.19-3.12,0-5.79-1.11-7.99-3.32-2.21-2.21-3.32-4.87-3.32-7.99s1.11-5.78,3.32-7.99c2.2-2.21,4.87-3.32,7.99-3.32,1.77,0,3.45,.4,5.04,1.19V3.54c-1.54-1-3.21-1.5-5.04-1.5-2.56,0-4.74,.91-6.55,2.72s-2.72,4-2.72,6.55,.91,4.74,2.72,6.55c1.81,1.81,4,2.72,6.55,2.72Z"/></g></g></svg>