<?xml version="1.0" encoding="UTF-8"?><svg id="_이어_2" xmlns="http://www.w3.org/2000/svg" viewBox="0 0 70.87 13.12"><defs><style>.cls-1{fill:#ccc;}</style></defs><g id="_이어_2-2"><g><path class="cls-1" d="M7.87,2.62v3.94h-1.31v1.31H2.62v5.25H0V1.31H6.56v1.31h1.31Zm-2.62,0H2.62v3.94h2.62V2.62Z"/><path class="cls-1" d="M13.12,3.94v2.62h1.31v1.31h-1.31v5.25h-2.62V3.94h2.62Zm5.25,2.62h-3.94v-1.31h1.31v-1.31h2.62v2.62Z"/><path class="cls-1" d="M27.56,3.94v1.31h1.31v6.56h-1.31v1.31h-5.25v-1.31h-1.31V5.25h1.31v-1.31h5.25Zm-1.31,1.31h-2.62v6.56h2.62V5.25Z"/><path class="cls-1" d="M34.12,2.62V1.31h5.25v1.31h-3.94v3.94h3.94v1.31h-3.94v5.25h-2.62V7.87h-1.31v-1.31h1.31V2.62h1.31Z"/><path class="cls-1" d="M49.87,11.81v1.31h-7.87v-1.31h2.62V5.25h-2.62v-1.31h5.25v7.87h2.62Zm-5.25-9.19V0h2.62V2.62h-2.62Z"/><path class="cls-1" d="M60.37,11.81v1.31h-7.87v-1.31h2.62V2.62h-2.62V1.31h5.25V11.81h2.62Z"/><path class="cls-1" d="M64.31,5.25v-1.31h5.25v1.31h1.31v3.94h-5.25v2.62h3.94v1.31h-5.25v-1.31h-1.31V5.25h1.31Zm3.94,0h-2.62v2.62h2.62v-2.62Z"/></g></g></svg>