<?xml version="1.0" encoding="UTF-8"?><svg id="_이어_2" xmlns="http://www.w3.org/2000/svg" viewBox="0 0 52.43 12.15"><defs><style>.cls-1{fill:#ccc;}</style></defs><g id="_이어_2-2"><g><path class="cls-1" d="M1.1,12.03H0V.11H4.29c.9,0,1.67,.32,2.31,.96,.64,.64,.96,1.41,.96,2.32s-.32,1.67-.96,2.31c-.64,.64-1.41,.95-2.31,.95H1.1v5.38Zm0-6.47h3.2c.6,0,1.11-.21,1.54-.64,.42-.42,.63-.93,.63-1.53s-.21-1.12-.63-1.54c-.43-.43-.94-.64-1.54-.64H1.1V5.55Z"/><path class="cls-1" d="M16.54,12.03h-1.23l-2.8-5.39h-2.86v5.38h-1.1V.11h4.28c.9,0,1.67,.32,2.31,.96,.64,.64,.95,1.41,.95,2.31,0,.75-.23,1.42-.69,2.01-.45,.58-1.02,.96-1.73,1.15l2.85,5.5Zm-3.69-6.48c.6,0,1.11-.21,1.54-.63,.42-.43,.63-.94,.63-1.54s-.21-1.11-.63-1.54c-.43-.43-.94-.64-1.54-.64h-3.19V5.54h3.19Z"/><path class="cls-1" d="M18.52,10.37c-1.19-1.18-1.78-2.61-1.78-4.29s.59-3.11,1.78-4.3c1.18-1.18,2.61-1.78,4.29-1.78s3.11,.59,4.3,1.78c1.18,1.19,1.78,2.62,1.78,4.3s-.59,3.11-1.78,4.29c-1.19,1.19-2.62,1.78-4.3,1.78s-3.11-.59-4.29-1.78Zm.77-7.81c-.97,.97-1.46,2.15-1.46,3.52s.49,2.55,1.46,3.52c.97,.97,2.15,1.46,3.52,1.46s2.54-.49,3.52-1.46c.97-.97,1.46-2.15,1.46-3.52s-.49-2.55-1.46-3.52c-.97-.97-2.15-1.46-3.52-1.46s-2.55,.49-3.52,1.46Z"/><path class="cls-1" d="M35.94,.11V1.2h-4.99V5.5h3.94v1.1h-3.94v5.43h-1.1V.11h6.08Z"/><path class="cls-1" d="M36.48,.05h1.1V12.03h-1.1V.05Z"/><path class="cls-1" d="M39.81,.11V10.93h5.54v1.1h-6.63V.11h1.1Z"/><path class="cls-1" d="M52.43,.11V1.2h-4.99V5.5h3.94v1.1h-3.94v4.33h4.99v1.1h-6.08V.11h6.08Z"/></g></g></svg>