<?xml version="1.0" encoding="UTF-8"?><svg id="_이어_2" xmlns="http://www.w3.org/2000/svg" viewBox="0 0 70.87 11.81"><defs><style>.cls-1{fill:#ccc;}</style></defs><g id="_이어_2-2"><g><path class="cls-1" d="M7.87,1.31v3.94h-1.31v1.31H2.62v5.25H0V0H6.56V1.31h1.31Zm-2.62,0H2.62v3.94h2.62V1.31Z"/><path class="cls-1" d="M13.12,2.62v2.62h1.31v1.31h-1.31v5.25h-2.62V2.62h2.62Zm5.25,2.62h-3.94v-1.31h1.31v-1.31h2.62v2.62Z"/><path class="cls-1" d="M27.56,2.62v1.31h1.31v6.56h-1.31v1.31h-5.25v-1.31h-1.31V3.94h1.31v-1.31h5.25Zm-1.31,1.31h-2.62v6.56h2.62V3.94Z"/><path class="cls-1" d="M39.37,0V11.81h-6.56v-1.31h-1.31V3.94h1.31v-1.31h3.94V0h2.62Zm-2.62,3.94h-2.62v6.56h2.62V3.94Z"/><path class="cls-1" d="M49.87,2.62V11.81h-6.56v-1.31h-1.31V2.62h2.62v7.87h2.62V2.62h2.62Z"/><path class="cls-1" d="M59.06,2.62v1.31h1.31v1.31h-2.62v-1.31h-2.62v6.56h2.62v-1.31h2.62v1.31h-1.31v1.31h-5.25v-1.31h-1.31V3.94h1.31v-1.31h5.25Z"/><path class="cls-1" d="M66.94,0V2.62h3.94v1.31h-3.94v6.56h3.94v1.31h-5.25v-1.31h-1.31V3.94h-1.31v-1.31h1.31V0h2.62Z"/></g></g></svg>