<?xml version="1.0" encoding="UTF-8"?><svg id="_이어_2" xmlns="http://www.w3.org/2000/svg" viewBox="0 0 65.2 12.17"><defs><style>.cls-1{fill:#ccc;}</style></defs><g id="_이어_2-2"><g><path class="cls-1" d="M1.1,12.04H0V.12H4.29c.9,0,1.67,.32,2.31,.96,.64,.64,.96,1.41,.96,2.32s-.32,1.67-.96,2.31c-.64,.64-1.41,.95-2.31,.95H1.1v5.38Zm0-6.47h3.2c.6,0,1.11-.21,1.54-.64,.42-.42,.63-.93,.63-1.53s-.21-1.12-.63-1.54c-.43-.43-.94-.64-1.54-.64H1.1V5.56Z"/><path class="cls-1" d="M16.54,12.04h-1.23l-2.8-5.39h-2.86v5.38h-1.1V.12h4.28c.9,0,1.67,.32,2.31,.96,.64,.64,.95,1.41,.95,2.31,0,.75-.23,1.42-.69,2.01-.45,.58-1.02,.96-1.73,1.15l2.85,5.5Zm-3.69-6.48c.6,0,1.11-.21,1.54-.63,.42-.43,.63-.94,.63-1.54s-.21-1.11-.63-1.54c-.43-.43-.94-.64-1.54-.64h-3.19V5.55h3.19Z"/><path class="cls-1" d="M18.52,10.38c-1.19-1.18-1.78-2.61-1.78-4.29s.59-3.11,1.78-4.3C19.7,.6,21.13,0,22.81,0s3.11,.59,4.3,1.78c1.18,1.19,1.78,2.62,1.78,4.3s-.59,3.11-1.78,4.29c-1.19,1.19-2.62,1.78-4.3,1.78s-3.11-.59-4.29-1.78Zm.77-7.81c-.97,.97-1.46,2.15-1.46,3.52s.49,2.55,1.46,3.52c.97,.97,2.15,1.46,3.52,1.46s2.54-.49,3.52-1.46c.97-.97,1.46-2.15,1.46-3.52s-.49-2.55-1.46-3.52c-.97-.97-2.15-1.46-3.52-1.46s-2.55,.49-3.52,1.46Z"/><path class="cls-1" d="M29.83,12.04V.12h2.93c1.64,0,3.05,.58,4.22,1.75,1.16,1.16,1.74,2.56,1.74,4.21s-.58,3.05-1.74,4.21c-1.17,1.17-2.57,1.75-4.22,1.75h-2.93Zm1.09-1.09h1.84c1.34,0,2.49-.48,3.45-1.43,.95-.95,1.43-2.1,1.43-3.44s-.48-2.49-1.43-3.44c-.95-.95-2.1-1.43-3.45-1.43h-1.84V10.95Z"/><path class="cls-1" d="M40.9,10.97c-.8-.8-1.2-1.77-1.2-2.91V.14h1.1v7.92c0,.83,.29,1.54,.88,2.13,.59,.59,1.3,.89,2.13,.89s1.54-.3,2.13-.89c.59-.59,.88-1.3,.88-2.13V.14h1.1v7.92c0,1.13-.4,2.1-1.2,2.91-.8,.8-1.77,1.2-2.9,1.2s-2.1-.4-2.91-1.2Z"/><path class="cls-1" d="M54.78,11.06c.98,0,1.88-.27,2.71-.81v1.26c-.85,.43-1.75,.64-2.71,.64-1.68,0-3.11-.59-4.29-1.78-1.19-1.18-1.78-2.61-1.78-4.29s.59-3.11,1.78-4.29c1.18-1.19,2.61-1.78,4.29-1.78,.95,0,1.85,.21,2.71,.64V1.9c-.82-.54-1.73-.81-2.71-.81-1.37,0-2.55,.49-3.52,1.46-.97,.97-1.46,2.15-1.46,3.52s.49,2.55,1.46,3.52c.97,.97,2.15,1.46,3.52,1.46Z"/><path class="cls-1" d="M65.2,.12V1.21h-3.12V12.04h-1.1V1.21h-3.13V.12h7.35Z"/></g></g></svg>