<?xml version="1.0" encoding="UTF-8"?><svg id="_이어_2" xmlns="http://www.w3.org/2000/svg" viewBox="0 0 85.24 22.65"><defs><style>.cls-1{fill:#ccc;}</style></defs><g id="_이어_2-2"><g><path class="cls-1" d="M6.71,22.61c-1.43-.06-2.75-.44-3.94-1.13-1.36-.78-2.28-1.83-2.77-3.14l1.92-.7c.33,.89,1,1.6,2.01,2.15,.89,.47,1.84,.74,2.87,.79,1.58,.06,2.89-.33,3.96-1.19,.95-.76,1.45-1.66,1.5-2.69,.08-1.94-1.69-3.42-5.32-4.44-2.62-.73-4.49-1.75-5.61-3.06C.47,8.21,.07,7.09,.12,5.84,.22,3.73,1.11,2.15,2.81,1.11,4.16,.29,5.79-.08,7.71,.02c2.31,.1,4.15,.9,5.53,2.38l-1.5,1.39c-1-1.08-2.38-1.66-4.13-1.75-1.5-.06-2.75,.21-3.74,.8-1.08,.67-1.65,1.7-1.71,3.09-.08,1.9,1.69,3.35,5.32,4.37,2.62,.73,4.49,1.76,5.61,3.08,.85,1.01,1.26,2.14,1.21,3.4-.08,1.66-.83,3.06-2.26,4.2-1.36,1.09-3,1.64-4.93,1.64-.13,0-.27,0-.4-.02Z"/><path class="cls-1" d="M18.27,20.41c-1.49-1.49-2.24-3.3-2.24-5.41V.26h2.04V15c0,1.55,.55,2.87,1.64,3.97,1.1,1.1,2.43,1.65,3.97,1.65s2.87-.55,3.97-1.65c1.09-1.1,1.64-2.43,1.64-3.97V.26h2.04V15c0,2.11-.75,3.92-2.24,5.41-1.49,1.49-3.3,2.24-5.41,2.24s-3.92-.75-5.41-2.24Z"/><path class="cls-1" d="M35.02,9.18c.4,0,.75,.14,1.04,.43,.29,.29,.43,.64,.43,1.05s-.14,.76-.43,1.04c-.29,.29-.63,.43-1.04,.43s-.76-.14-1.05-.43c-.29-.28-.43-.62-.43-1.04s.14-.76,.43-1.05c.29-.29,.64-.43,1.05-.43Zm0,10.49c.4,0,.75,.14,1.04,.43,.29,.29,.43,.63,.43,1.04s-.14,.76-.43,1.05c-.29,.29-.63,.43-1.04,.43s-.76-.14-1.05-.43c-.29-.29-.43-.64-.43-1.05s.14-.75,.43-1.04c.29-.29,.64-.43,1.05-.43Z"/><path class="cls-1" d="M60.54,.22V22.39h-2.02V5.15l-7.46,17.26h-2.23l-7.45-17.26V22.39h-2.04V.22h2.13l8.47,19.62L58.43,.22h2.12Z"/><path class="cls-1" d="M62.09,20.21l1.58-1.3c.92,1.11,2.09,1.67,3.52,1.67,1.27,0,2.35-.45,3.25-1.34,.9-.91,1.34-1.99,1.34-3.26s-.45-2.34-1.34-3.23c-.9-.9-1.98-1.34-3.25-1.34v-2.04c1.01,0,1.88-.36,2.6-1.07,.72-.72,1.08-1.58,1.08-2.58s-.36-1.89-1.08-2.6c-.72-.72-1.59-1.08-2.6-1.08-1.37,0-2.41,.58-3.12,1.75l-1.75-1.07c.53-.85,1.22-1.52,2.09-1.99,.85-.48,1.78-.73,2.78-.73,1.58,0,2.92,.56,4.03,1.67,1.12,1.12,1.68,2.47,1.68,4.05,0,1.91-.78,3.43-2.33,4.57,.99,.59,1.77,1.38,2.35,2.36,.6,1.03,.9,2.14,.9,3.32,0,1.83-.65,3.4-1.95,4.7-1.3,1.3-2.86,1.95-4.68,1.95-2.07,0-3.77-.8-5.1-2.41Z"/><path class="cls-1" d="M85.24,.22l-6.17,22.19h-2.12l5.61-20.15h-8.02V.22h10.69Z"/></g></g></svg>