<?xml version="1.0" encoding="UTF-8"?><svg id="_이어_2" xmlns="http://www.w3.org/2000/svg" viewBox="0 0 122.63 17.8"><g id="_이어_2-2"><g><path d="M3.96,3.96h1.98v1.98h-1.98v11.87H0V0H3.96V3.96Zm1.98,7.91V5.93h1.98v5.93h-1.98ZM9.89,0h3.96V17.8h-3.96V5.93h-1.98v-1.98h1.98V0Z"/><path d="M19.78,1.98V0h3.96V1.98h1.98v1.98h1.98v13.84h-3.96v-5.93h-3.96v5.93h-3.96V3.96h1.98V1.98h1.98Zm3.96,1.98h-3.96v5.93h3.96V3.96Z"/><path d="M43.51,1.98v3.96h-3.96V1.98h-3.96V15.82h3.96v-3.96h-1.98v-1.98h5.93v7.91h-9.89v-1.98h-1.98V1.98h1.98V0h7.91V1.98h1.98Z"/><path d="M51.42,1.98V0h3.96V1.98h1.98v1.98h1.98v13.84h-3.96v-5.93h-3.96v5.93h-3.96V3.96h1.98V1.98h1.98Zm3.96,1.98h-3.96v5.93h3.96V3.96Z"/><path d="M71.2,5.93V1.98h-7.91V0h11.87V5.93h-1.98v1.98h-1.98v1.98h-1.98v1.98h-1.98v3.96h7.91v1.98h-11.87v-5.93h1.98v-1.98h1.98v-1.98h1.98v-1.98h1.98Z"/><path d="M87.03,1.98V15.82h1.98v1.98h-7.91v-1.98h1.98V1.98h-1.98V0h7.91V1.98h-1.98Z"/><path d="M94.94,17.8V0h3.96V3.96h1.98v1.98h1.98v1.98h1.98V0h3.96V17.8h-3.96v-5.93h-1.98v-1.98h-1.98v-1.98h-1.98v9.89h-3.96Z"/><path d="M114.72,9.89v5.93h7.91v1.98h-11.87V0h11.87V1.98h-7.91V7.91h5.93v1.98h-5.93Z"/></g></g></svg>