<?xml version="1.0" encoding="UTF-8"?><svg id="_이어_2" xmlns="http://www.w3.org/2000/svg" viewBox="0 0 110.28 22.65"><g id="_이어_2-2"><g><path d="M6.71,22.6c-1.43-.06-2.75-.44-3.94-1.13-1.36-.78-2.28-1.83-2.77-3.14l1.92-.7c.33,.89,1,1.6,2.01,2.15,.89,.47,1.84,.74,2.87,.79,1.58,.06,2.89-.33,3.96-1.19,.95-.76,1.45-1.66,1.5-2.69,.08-1.94-1.69-3.42-5.32-4.44-2.62-.73-4.49-1.75-5.61-3.06C.47,8.21,.07,7.09,.12,5.84,.22,3.73,1.11,2.15,2.81,1.11,4.16,.29,5.79-.08,7.71,.01c2.31,.1,4.15,.9,5.53,2.38l-1.5,1.39c-1-1.08-2.38-1.66-4.13-1.75-1.5-.06-2.75,.21-3.74,.8-1.08,.67-1.65,1.7-1.71,3.09-.08,1.9,1.69,3.35,5.32,4.37,2.62,.73,4.49,1.76,5.61,3.08,.85,1.01,1.26,2.14,1.21,3.4-.08,1.66-.83,3.06-2.26,4.2-1.36,1.09-3,1.64-4.93,1.64-.13,0-.27,0-.4-.02Z"/><path d="M28.65,.21V2.25h-5.81V22.4h-2.04V2.25h-5.83V.21h13.68Z"/><path d="M32.68,20.41c-1.49-1.49-2.24-3.3-2.24-5.41V.26h2.04V15c0,1.54,.55,2.87,1.64,3.97,1.1,1.1,2.43,1.65,3.97,1.65s2.87-.55,3.97-1.65c1.09-1.1,1.64-2.43,1.64-3.97V.26h2.04V15c0,2.11-.75,3.92-2.24,5.41s-3.3,2.24-5.41,2.24-3.92-.75-5.41-2.24Z"/><path d="M48.13,22.4V.21h5.45c3.06,0,5.68,1.09,7.85,3.26,2.16,2.16,3.25,4.77,3.25,7.83s-1.08,5.67-3.25,7.83c-2.17,2.17-4.79,3.26-7.85,3.26h-5.45Zm2.02-2.02h3.43c2.5,0,4.64-.89,6.41-2.66,1.77-1.77,2.66-3.91,2.66-6.41s-.89-4.64-2.66-6.41-3.91-2.66-6.41-2.66h-3.43V20.38Z"/><path d="M77.86,.21V2.25h-9.29V10.26h7.34v2.04h-7.34v8.07h9.29v2.04h-11.33V.21h11.33Z"/><path d="M94.95,.21V22.4h-2.19L81.7,3.91V22.4h-2.04V.21h2.21l11.05,18.5V.21h2.04Z"/><path d="M110.28,.21V2.25h-5.81V22.4h-2.04V2.25h-5.83V.21h13.68Z"/></g></g></svg>