<?xml version="1.0" encoding="UTF-8"?><svg id="_이어_2" xmlns="http://www.w3.org/2000/svg" viewBox="0 0 106.8 17.8"><g id="_이어_2-2"><g><path d="M7.91,15.82v-3.96h-1.98v-1.98h-1.98v-1.98H1.98v-1.98H0V1.98H1.98V0h7.91V1.98h1.98v1.98h-3.96V1.98H3.96v3.96h1.98v1.98h1.98v1.98h1.98v1.98h1.98v3.96h-1.98v1.98H1.98v-1.98H0v-1.98H3.96v1.98h3.96Z"/><path d="M23.73,1.98v15.82h-3.96V1.98h-3.96V0h11.87V1.98h-3.96Z"/><path d="M39.56,15.82V0h3.96V15.82h-1.98v1.98h-7.91v-1.98h-1.98V0h3.96V15.82h3.96Z"/><path d="M57.36,1.98v1.98h1.98V13.84h-1.98v1.98h-1.98v1.98h-7.91V0h7.91V1.98h1.98Zm-1.98,1.98h-1.98V1.98h-1.98V15.82h1.98v-1.98h1.98V3.96Z"/><path d="M67.25,9.89v5.93h7.91v1.98h-11.87V0h11.87V1.98h-7.91V7.91h5.93v1.98h-5.93Z"/><path d="M79.12,17.8V0h3.96V3.96h1.98v1.98h1.98v1.98h1.98V0h3.96V17.8h-3.96v-5.93h-1.98v-1.98h-1.98v-1.98h-1.98v9.89h-3.96Z"/><path d="M102.85,1.98v15.82h-3.96V1.98h-3.96V0h11.87V1.98h-3.96Z"/></g></g></svg>