<?xml version="1.0" encoding="UTF-8"?><svg id="_이어_2" xmlns="http://www.w3.org/2000/svg" viewBox="0 0 98.88 18"><g id="_이어_2-2"><g><path d="M16.88,.16V17.82h-1.61V4.08l-5.94,13.74h-1.77L1.62,4.08v13.73H0V.16H1.7l6.74,15.63L15.2,.16h1.68Z"/><path d="M31.28,.16V17.83h-1.61v-4.42h-7.01l-2.79,4.42h-1.92L29.11,.16h2.17Zm-7.6,11.63h5.99V2.33l-5.99,9.46Z"/><path d="M35.21,15.35c-1.76-1.75-2.65-3.88-2.65-6.36s.88-4.6,2.65-6.36c1.75-1.76,3.88-2.63,6.36-2.63,1.22,0,2.39,.23,3.51,.7l-.64,1.5c-.91-.39-1.87-.58-2.87-.58-2.03,0-3.77,.72-5.22,2.15-1.44,1.44-2.17,3.18-2.17,5.22s.72,3.77,2.17,5.22c1.44,1.44,3.18,2.17,5.22,2.17,.82,0,1.62-.13,2.39-.39v-6.23h-3.68v-1.62h5.3v8.94l-.49,.21c-1.12,.48-2.3,.71-3.52,.71-2.49,0-4.61-.88-6.36-2.65Z"/><path d="M59.33,.16V17.83h-1.61v-4.42h-7.01l-2.79,4.42h-1.92L57.16,.16h2.17Zm-7.6,11.63h5.99V2.33l-5.99,9.46Z"/><path d="M71.76,.16l-8.69,16.04h7.86v1.62h-10.59L69.04,1.78h-7.86V.16h10.58Z"/><path d="M72.2,.07h1.64V17.83h-1.64V.07Z"/><path d="M87.69,.16V17.83h-1.75l-8.81-14.73v14.73h-1.62V.16h1.76l8.8,14.73V.16h1.62Z"/><path d="M98.88,.16V1.78h-7.39v6.37h5.84v1.62h-5.84v6.42h7.39v1.62h-9.02V.16h9.02Z"/></g></g></svg>