<?xml version="1.0" encoding="UTF-8"?><svg id="_이어_2" xmlns="http://www.w3.org/2000/svg" viewBox="0 0 81.9 22.61"><g id="_이어_2-2"><g><path d="M2.04,.2V20.35H12.35v2.04H0V.2H2.04Z"/><path d="M14,19.28c-2.21-2.2-3.32-4.87-3.32-7.99s1.11-5.77,3.32-7.99c2.2-2.2,4.87-3.31,7.99-3.31,1.54,0,3,.29,4.4,.88l-.8,1.88c-1.14-.48-2.34-.73-3.6-.73-2.55,0-4.74,.9-6.55,2.7-1.81,1.81-2.72,4-2.72,6.55s.91,4.74,2.72,6.55c1.81,1.81,4,2.72,6.55,2.72,1.03,0,2.03-.16,3-.49v-7.82h-4.62v-2.04h6.66v11.23l-.62,.26c-1.41,.6-2.88,.9-4.42,.9-3.12,0-5.78-1.11-7.99-3.32Z"/><path d="M51.07,.2V22.39h-2.04V12.28h-11.25v10.11h-2.04V.2h2.04V10.24h11.25V.2h2.04Z"/><path d="M64.96,10.21v2.04h-1.39v10.14h-4.96c-1.67,0-3.1-.6-4.3-1.79s-1.78-2.62-1.78-4.31c0-1.18,.32-2.28,.97-3.28,.63-.98,1.46-1.72,2.5-2.21-1.41-1.21-2.12-2.73-2.12-4.57,0-1.66,.59-3.08,1.78-4.26,1.17-1.17,2.59-1.76,4.25-1.76h2.63V2.24h-2.63c-1.09,0-2.03,.39-2.81,1.17-.78,.77-1.17,1.71-1.17,2.81s.39,2.04,1.17,2.81c.78,.78,1.72,1.17,2.81,1.17h1.61v-2.55h2.04v2.55h1.39Zm-3.43,2.04h-2.92c-1.11,0-2.06,.4-2.84,1.19-.79,.78-1.19,1.73-1.19,2.84s.4,2.08,1.19,2.87c.78,.79,1.73,1.19,2.84,1.19h2.92V12.25Z"/><path d="M81.9,.2V22.39h-2.04V12.28h-11.25v10.11h-2.04V.2h2.04V10.24h11.25V.2h2.04Z"/></g></g></svg>