<?xml version="1.0" encoding="UTF-8"?><svg id="_이어_2" xmlns="http://www.w3.org/2000/svg" viewBox="0 0 90.98 17.8"><g id="_이어_2-2"><g><path d="M3.96,0V15.82h7.91v1.98H0V0H3.96Z"/><path d="M27.69,1.98v3.96h-3.96V1.98h-3.96V15.82h3.96v-3.96h-1.98v-1.98h5.93v7.91h-9.89v-1.98h-1.98V1.98h1.98V0h7.91V1.98h1.98Z"/><path d="M55.38,7.91V0h3.96V17.8h-3.96v-7.91h-3.96v7.91h-3.96V0h3.96V7.91h3.96Z"/><path d="M65.27,7.91v-1.98h-1.98V1.98h1.98V0h5.93V1.98h1.98v3.96h-1.98v1.98h-3.96v7.91h3.96v1.98h-5.93v-1.98h-1.98V7.91h1.98Zm1.98-5.93v3.96h1.98V1.98h-1.98Zm3.96,9.89h-1.98v-1.98h7.91v1.98h-1.98v3.96h1.98v1.98h-3.96v-1.98h-1.98v-3.96Z"/><path d="M87.03,7.91V0h3.96V17.8h-3.96v-7.91h-3.96v7.91h-3.96V0h3.96V7.91h3.96Z"/></g></g></svg>