<?xml version="1.0" encoding="UTF-8"?><svg id="_이어_2" xmlns="http://www.w3.org/2000/svg" viewBox="0 0 183.94 17.8"><defs><style>.cls-1{fill:#ccc;}</style></defs><g id="_이어_2-2"><g><path class="cls-1" d="M5.93,1.98V15.82h1.98v1.98H0v-1.98H1.98V1.98H0V0H7.91V1.98h-1.98Z"/><path class="cls-1" d="M13.85,17.8V0h3.96V3.96h1.98v1.98h1.98v1.98h1.98V0h3.96V17.8h-3.96v-5.93h-1.98v-1.98h-1.98v-1.98h-1.98v9.89h-3.96Z"/><path class="cls-1" d="M29.67,17.8V0h3.96V3.96h1.98v1.98h1.98v1.98h1.98V0h3.96V17.8h-3.96v-5.93h-1.98v-1.98h-1.98v-1.98h-1.98v9.89h-3.96Z"/><path class="cls-1" d="M49.45,9.89v5.93h7.91v1.98h-11.87V0h11.87V1.98h-7.91V7.91h5.93v1.98h-5.93Z"/><path class="cls-1" d="M71.2,0V1.98h1.98V7.91h-1.98v3.96h1.98v5.93h-3.96v-5.93h-1.98v-1.98h-1.98v7.91h-3.96V0h9.89Zm-1.98,1.98h-3.96V7.91h3.96V1.98Z"/><path class="cls-1" d="M102.85,7.91v1.98h1.98v5.93h-1.98v1.98h-9.89V0h9.89V1.98h1.98V7.91h-1.98Zm-1.98-5.93h-3.96V7.91h3.96V1.98Zm0,7.91h-3.96v5.93h3.96v-5.93Z"/><path class="cls-1" d="M112.74,9.89v5.93h7.91v1.98h-11.87V0h11.87V1.98h-7.91V7.91h5.93v1.98h-5.93Z"/><path class="cls-1" d="M128.56,1.98V0h3.96V1.98h1.98v1.98h1.98v13.84h-3.96v-5.93h-3.96v5.93h-3.96V3.96h1.98V1.98h1.98Zm3.96,1.98h-3.96v5.93h3.96V3.96Z"/><path class="cls-1" d="M148.34,15.82V0h3.96V15.82h-1.98v1.98h-7.91v-1.98h-1.98V0h3.96V15.82h3.96Z"/><path class="cls-1" d="M164.16,1.98v15.82h-3.96V1.98h-3.96V0h11.87V1.98h-3.96Z"/><path class="cls-1" d="M172.08,7.91V0h3.96V7.91h3.96V0h3.96V7.91h-1.98v1.98h-1.98v7.91h-3.96v-7.91h-1.98v-1.98h-1.98Z"/></g></g></svg>