<?xml version="1.0" encoding="UTF-8"?><svg id="_이어_2" xmlns="http://www.w3.org/2000/svg" viewBox="0 0 95.11 22.62"><defs><style>.cls-1{fill:#ccc;}</style></defs><g id="_이어_2-2"><g><path class="cls-1" d="M31.09,.2l-14.03,22.19h-2.72V4.02L2.72,22.39H0V.2H2.04V19.67L14.34,.2h2.04V19.67L28.68,.2h2.41Z"/><path class="cls-1" d="M47.67,.2V22.39h-2.04V12.28h-11.25v10.11h-2.04V.2h2.04V10.24h11.25V.2h2.04Z"/><path class="cls-1" d="M52.43,19.3c-2.21-2.2-3.32-4.87-3.32-7.99s1.11-5.79,3.32-8c2.2-2.2,4.87-3.31,7.99-3.31s5.79,1.1,8,3.31c2.2,2.21,3.31,4.88,3.31,8s-1.1,5.78-3.31,7.99c-2.21,2.21-4.88,3.32-8,3.32s-5.78-1.11-7.99-3.32Zm1.44-14.54c-1.81,1.81-2.72,4-2.72,6.55s.91,4.74,2.72,6.55c1.81,1.81,4,2.72,6.55,2.72s4.74-.91,6.55-2.72c1.81-1.81,2.72-4,2.72-6.55s-.91-4.74-2.72-6.55c-1.81-1.81-4-2.72-6.55-2.72s-4.74,.91-6.55,2.72Z"/><path class="cls-1" d="M75.81,19.3c-2.21-2.2-3.32-4.87-3.32-7.99s1.11-5.79,3.32-8c2.2-2.2,4.87-3.31,7.99-3.31s5.79,1.1,8,3.31c2.2,2.21,3.31,4.88,3.31,8s-1.1,5.78-3.31,7.99c-2.21,2.21-4.88,3.32-8,3.32s-5.78-1.11-7.99-3.32Zm1.44-14.54c-1.81,1.81-2.72,4-2.72,6.55s.91,4.74,2.72,6.55c1.81,1.81,4,2.72,6.55,2.72s4.74-.91,6.55-2.72c1.81-1.81,2.72-4,2.72-6.55s-.91-4.74-2.72-6.55c-1.81-1.81-4-2.72-6.55-2.72s-4.74,.91-6.55,2.72Z"/></g></g></svg>