<?xml version="1.0" encoding="UTF-8"?><svg id="_이어_2" xmlns="http://www.w3.org/2000/svg" viewBox="0 0 170.44 22.54"><defs><style>.cls-1{fill:#ccc;}</style></defs><g id="_이어_2-2"><g><path class="cls-1" d="M0,0H2.05V22.3H0V0Z"/><path class="cls-1" d="M19.45,.11V22.3h-2.19L6.2,3.8V22.3h-2.04V.11h2.21l11.05,18.5V.11h2.04Z"/><path class="cls-1" d="M37.49,.11V22.3h-2.19L24.23,3.8V22.3h-2.04V.11h2.21l11.05,18.5V.11h2.04Z"/><path class="cls-1" d="M51.55,.11V2.15h-9.29V10.15h7.34v2.04h-7.34v8.07h9.29v2.04h-11.33V.11h11.33Z"/><path class="cls-1" d="M68.24,22.3h-2.29l-5.21-10.03h-5.32v10.01h-2.04V.11h7.97c1.68,0,3.11,.6,4.3,1.79,1.18,1.18,1.78,2.62,1.78,4.3,0,1.39-.43,2.64-1.28,3.74-.83,1.07-1.91,1.78-3.21,2.13l5.3,10.23Zm-6.88-12.07c1.11,0,2.07-.39,2.86-1.17,.78-.79,1.17-1.75,1.17-2.86s-.39-2.07-1.17-2.86c-.79-.79-1.75-1.19-2.86-1.19h-5.93V10.23h5.93Z"/><path class="cls-1" d="M76.78,22.3V.11h6.67c1.66,0,3.08,.59,4.25,1.76,1.18,1.18,1.78,2.61,1.78,4.26,0,1.84-.71,3.37-2.12,4.59,1.05,.49,1.89,1.23,2.52,2.19,.64,1,.96,2.09,.96,3.28,0,1.69-.59,3.13-1.78,4.31s-2.63,1.79-4.3,1.79h-7.99Zm2.04-12.16h4.64c1.09,0,2.03-.39,2.81-1.17,.78-.78,1.17-1.73,1.17-2.83s-.39-2.04-1.17-2.81c-.78-.78-1.72-1.17-2.81-1.17h-4.64v7.99Zm0,10.12h5.95c1.11,0,2.07-.4,2.86-1.19,.78-.79,1.17-1.75,1.17-2.87s-.39-2.05-1.17-2.84c-.79-.78-1.75-1.17-2.86-1.17h-5.95v8.08Z"/><path class="cls-1" d="M104.01,.11V2.15h-9.29V10.15h7.34v2.04h-7.34v8.07h9.29v2.04h-11.33V.11h11.33Z"/><path class="cls-1" d="M121.25,.11V22.3h-2.02v-5.55h-8.81l-3.51,5.55h-2.41L118.53,.11h2.72Zm-9.55,14.6h7.53V2.83l-7.53,11.88Z"/><path class="cls-1" d="M126.2,20.3c-1.49-1.49-2.24-3.3-2.24-5.41V.15h2.04V14.9c0,1.55,.55,2.87,1.64,3.97,1.1,1.1,2.43,1.65,3.97,1.65s2.87-.55,3.97-1.65c1.09-1.1,1.64-2.43,1.64-3.97V.15h2.04V14.9c0,2.11-.75,3.92-2.24,5.41-1.49,1.49-3.3,2.24-5.41,2.24s-3.92-.75-5.41-2.24Z"/><path class="cls-1" d="M154.29,.11V2.15h-5.81V22.3h-2.04V2.15h-5.83V.11h13.68Z"/><path class="cls-1" d="M170.44,.11l-6.81,11.57v10.62h-2.04V11.68L154.77,.11h2.36l5.47,9.3L168.09,.11h2.35Z"/></g></g></svg>