<?xml version="1.0" encoding="UTF-8"?><svg id="_이어_2" xmlns="http://www.w3.org/2000/svg" viewBox="0 0 106.8 19.78"><defs><style>.cls-1{fill:#ccc;}</style></defs><g id="_이어_2-2"><g><path class="cls-1" d="M7.91,17.8v-3.96h-1.98v-1.98h-1.98v-1.98H1.98v-1.98H0V3.96H1.98V1.98h7.91v1.98h1.98v1.98h-3.96v-1.98H3.96v3.96h1.98v1.98h1.98v1.98h1.98v1.98h1.98v3.96h-1.98v1.98H1.98v-1.98H0v-1.98H3.96v1.98h3.96Z"/><path class="cls-1" d="M23.73,17.8V1.98h3.96v15.82h-1.98v1.98h-7.91v-1.98h-1.98V1.98h3.96v15.82h3.96Z"/><path class="cls-1" d="M35.6,9.89v-3.96h5.93v3.96h-5.93Zm0,9.89v-3.96h5.93v3.96h-5.93Z"/><path class="cls-1" d="M51.42,5.93h1.98v1.98h-1.98v11.87h-3.96V1.98h3.96v3.96Zm1.98,7.91V7.91h1.98v5.93h-1.98Zm3.96-11.87h3.96V19.78h-3.96V7.91h-1.98v-1.98h1.98V1.98Z"/><path class="cls-1" d="M71.2,17.8v-5.93h-3.96v-1.98h3.96V3.96h-3.96v3.96h-3.96V3.96h1.98V1.98h7.91v1.98h1.98v5.93h-1.98v1.98h1.98v5.93h-1.98v1.98h-7.91v-1.98h-1.98v-3.96h3.96v3.96h3.96Z"/><path class="cls-1" d="M83.07,13.84v-3.96h1.98v-3.96h1.98v-1.98h-7.91V1.98h11.87v3.96h-1.98v3.96h-1.98v3.96h-1.98v5.93h-3.96v-5.93h1.98Z"/><path class="cls-1" d="M104.83,0V1.98h1.98v3.96h-1.98v1.98h-7.91v-1.98h-1.98V1.98h1.98V0h7.91Zm-1.98,1.98h-3.96v3.96h3.96V1.98Z"/></g></g></svg>