<?xml version="1.0" encoding="UTF-8"?><svg id="_이어_2" xmlns="http://www.w3.org/2000/svg" viewBox="0 0 59.33 17.8"><defs><style>.cls-1{fill:#ccc;}</style></defs><g id="_이어_2-2"><g><path class="cls-1" d="M3.96,0V11.87h1.98v5.93H1.98v-5.93H0V0H3.96Zm1.98,5.93h1.98v5.93h-1.98V5.93ZM9.89,0h3.96V11.87h-1.98v5.93h-3.96v-5.93h1.98V0Z"/><path class="cls-1" d="M23.73,7.91V0h3.96V17.8h-3.96v-7.91h-3.96v7.91h-3.96V0h3.96V7.91h3.96Z"/><path class="cls-1" d="M41.53,0V1.98h1.98V15.82h-1.98v1.98h-7.91v-1.98h-1.98V1.98h1.98V0h7.91Zm-1.98,1.98h-3.96V15.82h3.96V1.98Z"/><path class="cls-1" d="M57.36,0V1.98h1.98V15.82h-1.98v1.98h-7.91v-1.98h-1.98V1.98h1.98V0h7.91Zm-1.98,1.98h-3.96V15.82h3.96V1.98Z"/></g></g></svg>